<svg width="34" height="35" viewBox="0 0 34 35" fill="none" xmlns="http://www.w3.org/2000/svg">
    <path d="M1.61947 4.6163C1.43825 4.67849 1.28867 4.79397 1.17649 4.95387C1.00678 5.19667 1.0039 5.21444 1.01253 7.07992C1.02116 8.74405 1.02116 8.78255 1.08156 8.91579C1.17074 9.11419 1.33182 9.28297 1.51879 9.37772L1.68275 9.46063L8.47124 9.47544L15.2597 9.49024L15.4208 9.57315C15.6135 9.66791 15.8293 9.89591 15.9156 10.0913C15.9789 10.2305 15.9789 10.2364 15.9789 12.2885V14.3464L15.8983 14.5122C15.8063 14.7106 15.5848 14.9327 15.3949 15.0215L15.2597 15.0867L11.0313 15.1015L6.80288 15.1163L6.67056 15.1785C6.47784 15.2703 6.31388 15.4361 6.22183 15.6286L6.14129 15.7974L6.12691 17.7072L6.11253 19.6171L6.03199 19.783C5.93994 19.9814 5.71845 20.2034 5.5286 20.2923C5.39628 20.3574 5.36752 20.3574 3.53808 20.3722C1.72014 20.387 1.67987 20.387 1.55043 20.4492C1.35771 20.541 1.19375 20.7068 1.1017 20.8993L1.02116 21.0681V22.8447V24.6214L1.09882 24.7694C1.19087 24.9471 1.34908 25.107 1.52454 25.2018L1.65398 25.2728L3.50931 25.2876L5.36464 25.3024L5.54011 25.3853C5.75009 25.486 5.9198 25.6578 6.03199 25.8798L6.11253 26.0427L6.12691 27.9526L6.14129 29.8625L6.20745 30.0105C6.29087 30.1971 6.4462 30.3629 6.63029 30.4636L6.77412 30.5435L13.3958 30.5524L20.0174 30.5583L20.1843 30.4962C20.4086 30.4073 20.6215 30.1882 20.7078 29.9543C20.7682 29.7825 20.7711 29.7677 20.7624 28.0592L20.7538 26.3388L20.6733 26.17C20.5841 25.9805 20.4173 25.8147 20.2217 25.7199L20.0922 25.6578L13.3037 25.643L6.51523 25.6281L6.38004 25.563C6.19019 25.4742 5.9687 25.2521 5.87666 25.0537L5.79611 24.8879V22.8299V20.772L5.87953 20.6002C5.98309 20.393 6.1643 20.2153 6.38004 20.1116L6.544 20.0317L10.7724 20.0169L15.0008 20.0021L15.1447 19.9221C15.3173 19.8274 15.4726 19.6645 15.5646 19.4839L15.6337 19.3507L15.6481 17.4408L15.6624 15.5309L15.7459 15.3473C15.8437 15.1252 16.0191 14.9505 16.2464 14.8409L16.4103 14.761L18.2657 14.7462L20.121 14.7314L20.2648 14.6514C20.4374 14.5567 20.5927 14.3938 20.6848 14.2132L20.7538 14.0799V12.2885V10.497L20.6761 10.349C20.5783 10.1594 20.4173 9.99955 20.236 9.91368L20.0922 9.84557L18.2369 9.83077L16.3816 9.81596L16.2234 9.73305C16.0076 9.61757 15.8408 9.44287 15.743 9.22671L15.6624 9.04608L15.6481 7.13618L15.6337 5.22629L15.556 5.07823C15.4553 4.87688 15.2626 4.69921 15.0613 4.62222L14.8973 4.56004H8.33317C2.10847 4.563 1.76041 4.56596 1.61947 4.6163Z" fill="#44EB99"/>
    <path d="M23.7137 4.60129C23.4634 4.6842 23.2592 4.88259 23.1355 5.16686C23.0866 5.27642 23.0837 5.41559 23.0837 7.01753V8.74977L23.1585 8.91559C23.2535 9.1199 23.4117 9.29165 23.6015 9.3864L23.7453 9.46043L25.6007 9.47523L27.456 9.49004L27.6199 9.56999C27.8184 9.66474 28.0083 9.85425 28.1032 10.0526L28.1751 10.2007L28.1895 20.0167L28.2039 29.8327L28.2787 29.9985C28.3736 30.2028 28.5347 30.3746 28.7245 30.4723L28.8655 30.5433H30.5914H32.3172L32.4582 30.4723C32.648 30.3746 32.8091 30.2028 32.904 29.9985L32.9788 29.8327L32.9875 20.3424C32.9932 13.8458 32.9846 10.787 32.9644 10.6508C32.9127 10.3073 32.7631 10.0882 32.4668 9.92532L32.3172 9.84537L30.4619 9.83056L28.6066 9.81576L28.4656 9.74765C28.27 9.65586 28.1492 9.55518 28.0457 9.40121C27.8529 9.11398 27.8616 9.20873 27.8443 7.10637L27.8299 5.19647L27.7638 5.06914C27.6775 4.90332 27.5049 4.73158 27.3323 4.64571L27.1971 4.57464L25.5144 4.56872C24.1998 4.5628 23.8057 4.57168 23.7137 4.60129ZM31.5291 10.7781C31.5751 10.8048 31.5837 10.8433 31.5837 11.0091C31.5837 11.1275 31.5694 11.2252 31.5492 11.246C31.5233 11.2726 31.3162 11.2815 30.787 11.2815C30.0995 11.2815 30.0592 11.2845 30.0304 11.3378C29.993 11.4088 29.993 11.7553 30.0304 11.8145C30.0506 11.85 30.1541 11.8619 30.5396 11.8737L31.0228 11.8885L31.0315 12.1106C31.0372 12.232 31.0545 12.3475 31.0717 12.3682C31.0919 12.3919 31.1753 12.4067 31.3076 12.4067C31.4313 12.4067 31.5291 12.4215 31.5492 12.4422C31.5694 12.463 31.5837 12.5607 31.5837 12.6732C31.5837 12.7857 31.5694 12.8834 31.5492 12.9042C31.5291 12.9249 31.4313 12.9397 31.3105 12.9397C31.1897 12.9397 31.0919 12.9545 31.0717 12.9752C31.0516 12.996 31.0372 13.0966 31.0372 13.2269C31.0372 13.4076 31.0286 13.446 30.9826 13.4727C30.8963 13.5201 29.6249 13.5112 29.5587 13.4638C29.5184 13.4342 29.5127 13.3898 29.5184 13.2062L29.5271 12.9841L30.2577 12.9752C30.7381 12.9723 31.0027 12.9575 31.0286 12.9367C31.0545 12.913 31.066 12.8272 31.066 12.6702C31.066 12.4718 31.0573 12.4334 31.0113 12.4067C30.9797 12.3919 30.7668 12.3771 30.5252 12.3771C30.2088 12.3771 30.088 12.3682 30.065 12.3386C30.0477 12.3179 30.0304 12.2024 30.0247 12.081L30.0161 11.8589L29.7946 11.85C29.6536 11.8441 29.5644 11.8263 29.5414 11.8026C29.5242 11.776 29.5127 11.6753 29.5184 11.5421L29.5271 11.3259L29.7428 11.317C29.8607 11.3111 29.9729 11.2933 29.993 11.2756C30.0161 11.2548 30.0304 11.169 30.0304 11.0268C30.0304 10.8521 30.0391 10.8048 30.0822 10.7811C30.1484 10.7396 31.4543 10.7396 31.5291 10.7781ZM30.9826 14.0057C31.0286 14.0323 31.0372 14.0708 31.0372 14.2515C31.0372 14.3817 31.0516 14.4824 31.0717 14.5032C31.0919 14.5239 31.1897 14.5387 31.3105 14.5387C31.4313 14.5387 31.5291 14.5535 31.5492 14.5742C31.5694 14.5949 31.5837 14.6927 31.5837 14.8111C31.5837 14.9769 31.5751 15.0154 31.5291 15.0421C31.4514 15.0835 31.1436 15.0806 31.1005 15.0361C31.0804 15.0154 31.066 14.9147 31.066 14.7904C31.066 14.666 31.0516 14.5653 31.0315 14.5446C31.0084 14.5209 30.8589 14.5091 30.5453 14.5091C30.1714 14.5091 30.0851 14.518 30.0477 14.5565C30.0074 14.5949 30.0017 14.7075 30.0017 15.3411C30.0017 15.7971 30.0132 16.1051 30.0304 16.1406C30.0592 16.1939 30.0966 16.1969 30.5281 16.1969C30.856 16.1969 31.0084 16.185 31.0315 16.1614C31.0516 16.1406 31.066 16.04 31.066 15.9097C31.066 15.658 31.089 15.6343 31.3249 15.6343C31.5578 15.6343 31.5837 15.6609 31.5837 15.8949C31.5837 16.0133 31.5694 16.111 31.5492 16.1317C31.5291 16.1525 31.4313 16.1673 31.3047 16.1673C31.0545 16.1673 31.0372 16.188 31.0372 16.4693C31.0372 16.5789 31.0228 16.6736 31.0027 16.6944C30.9797 16.718 30.8359 16.7299 30.5453 16.7299C30.0333 16.7299 30.0304 16.7299 30.0304 16.4367C30.0304 16.3065 30.0161 16.2235 29.993 16.2028C29.9729 16.185 29.8607 16.1673 29.7428 16.1614L29.5271 16.1525V15.353V14.5535L29.7428 14.5446C29.8607 14.5387 29.9729 14.5209 29.993 14.5032C30.0161 14.4824 30.0304 14.3995 30.0304 14.2692C30.0304 13.979 30.0333 13.9761 30.5223 13.9761C30.7467 13.9761 30.9509 13.9909 30.9826 14.0057ZM30.0017 17.7426C30.0103 18.012 30.0276 18.246 30.0391 18.2608C30.0535 18.2726 30.2807 18.2904 30.5425 18.2993L31.0228 18.3141L31.0401 18.551C31.0487 18.6901 31.0573 18.4828 31.0602 18.0564C31.0631 17.6567 31.0746 17.3073 31.0832 17.2806C31.0976 17.2422 31.1465 17.2333 31.3249 17.2333C31.5032 17.2333 31.5521 17.2422 31.5665 17.2806C31.5751 17.3073 31.5837 17.9025 31.5837 18.6072C31.5837 19.5636 31.5751 19.8953 31.5492 19.9219C31.5032 19.9693 31.1465 19.9693 31.1005 19.9219C31.0775 19.8982 31.066 19.7324 31.066 19.3741C31.066 18.9004 31.0631 18.8619 31.0113 18.8323C30.9797 18.8145 30.7611 18.8026 30.5079 18.8026C29.9959 18.8026 30.0391 18.8293 30.0218 18.4917C30.0161 18.394 30.0103 18.6783 30.0074 19.1195L30.0017 19.9279L29.9355 19.9427C29.8981 19.9545 29.7917 19.9575 29.6996 19.9515L29.5271 19.9427L29.5184 18.625C29.5155 17.8995 29.5184 17.2895 29.5271 17.2688C29.5357 17.2422 29.6018 17.2333 29.7629 17.2392L29.9873 17.2481L30.0017 17.7426ZM31.0315 20.6681C31.043 21.0027 31.0343 20.9938 31.2788 20.9938C31.5981 20.9938 31.5837 20.9524 31.5837 21.8081C31.5837 22.2049 31.5751 22.5484 31.5665 22.5751C31.5521 22.6136 31.5032 22.6224 31.3421 22.6224C31.2299 22.6224 31.1177 22.6372 31.0947 22.6521C31.0631 22.6698 31.0487 22.7498 31.0372 22.9245L31.0228 23.1702L30.5655 23.1791C30.2548 23.185 30.0966 23.1762 30.0707 23.1525C30.0419 23.1288 30.0304 23.0488 30.0304 22.9008C30.0304 22.7616 30.0189 22.6757 29.9959 22.6609C29.9758 22.6491 29.8607 22.6313 29.7428 22.6224L29.5271 22.6076L29.5184 21.8407C29.5127 21.3136 29.5213 21.0619 29.5443 21.0353C29.5644 21.0116 29.6565 20.9938 29.7946 20.9879L30.0161 20.979L30.0247 20.757C30.0304 20.6356 30.0477 20.5201 30.065 20.4993C30.088 20.4697 30.203 20.4608 30.5597 20.4668L31.0228 20.4757L31.0315 20.6681ZM31.0372 23.949C31.0487 24.1237 31.0631 24.2037 31.0947 24.2214C31.1177 24.2362 31.2299 24.251 31.3421 24.251C31.5032 24.251 31.5521 24.2599 31.5665 24.2984C31.5751 24.3251 31.5837 24.6774 31.5837 25.0801C31.5837 25.9359 31.6068 25.8796 31.2702 25.8796C31.0372 25.8796 31.043 25.8707 31.0315 26.2053L31.0228 26.3978L30.5655 26.4067C30.2634 26.4126 30.0966 26.4037 30.0707 26.3801C30.0477 26.3593 30.0304 26.2646 30.0247 26.1224L30.0161 25.8944L29.7946 25.8856C29.6565 25.8796 29.5644 25.8619 29.5443 25.8382C29.5213 25.8115 29.5127 25.5598 29.5184 25.0328L29.5271 24.2658L29.7428 24.251C29.8607 24.2422 29.9758 24.2244 29.9959 24.2125C30.0189 24.1977 30.0304 24.1119 30.0304 23.9727C30.0304 23.8454 30.0448 23.7447 30.065 23.724C30.0908 23.6973 30.2289 23.6884 30.5626 23.6944L31.0228 23.7032L31.0372 23.949ZM29.9557 26.9338C29.9959 26.9486 30.0017 27.07 30.0017 27.9968C30.0017 28.9088 30.0074 29.0509 30.0477 29.0894C30.0851 29.1309 30.1944 29.1368 30.8042 29.1368C31.3191 29.1368 31.5233 29.1457 31.5492 29.1724C31.5837 29.2079 31.5981 29.5099 31.5665 29.5928C31.5521 29.6343 31.4572 29.6402 30.8042 29.6402H30.0592L30.0448 29.5721C30.0362 29.5366 30.0276 29.4211 30.0247 29.3145L30.0161 29.122L29.8291 29.1131C29.7255 29.1102 29.6133 29.1013 29.5788 29.0924L29.5127 29.0776V28.0146C29.5127 27.1914 29.5213 26.9486 29.5501 26.9367C29.6018 26.913 29.9039 26.913 29.9557 26.9338Z" fill="#44EB99"/>
    <path d="M30.019 21.0414C30.0103 21.0651 30.0017 21.4234 30.0017 21.838C30.0017 22.4391 30.0103 22.5931 30.042 22.6197C30.0679 22.6434 30.2318 22.6523 30.5655 22.6464L31.0516 22.6375V21.8232V21.0089L30.5454 21C30.0995 20.9941 30.0362 21 30.019 21.0414Z" fill="#44EB99"/>
    <path d="M30.0362 24.2571C30.0103 24.2838 30.0017 24.494 30.0017 25.0537C30.0017 25.7081 30.0075 25.8236 30.0477 25.862C30.0851 25.9005 30.1714 25.9094 30.531 25.9094C30.8359 25.9094 30.9826 25.8976 31.0171 25.8709C31.0631 25.8384 31.066 25.7614 31.0603 25.0359L31.0516 24.2364L30.5626 24.2275C30.2059 24.2216 30.0621 24.2305 30.0362 24.2571Z" fill="#44EB99"/>
</svg>